<svg width="46" height="46" viewBox="0 0 46 46" fill="none" xmlns="http://www.w3.org/2000/svg">
<g opacity="0.5">
<path d="M7.66668 36.4167H3.83334C3.83334 30.0654 8.98207 24.9167 15.3333 24.9167C21.6846 24.9167 26.8333 30.0654 26.8333 36.4167H23C23 32.1825 19.5675 28.75 15.3333 28.75C11.0992 28.75 7.66668 32.1825 7.66668 36.4167ZM36.4167 30.6667H32.5833V24.9167H26.8333V21.0834H32.5833V15.3334H36.4167V21.0834H42.1667V24.9167H36.4167V30.6667ZM15.3333 23C11.0992 23 7.66668 19.5675 7.66668 15.3334C7.66668 11.0992 11.0992 7.66669 15.3333 7.66669C19.5675 7.66669 23 11.0992 23 15.3334C22.9947 19.5653 19.5653 22.9947 15.3333 23ZM15.3333 11.5C13.2392 11.5021 11.5343 13.1845 11.5043 15.2784C11.4743 17.3724 13.1303 19.1029 15.2235 19.165C17.3167 19.2271 19.0724 17.5979 19.1667 15.5059V16.2725V15.3334C19.1667 13.2163 17.4504 11.5 15.3333 11.5Z" fill="white"/>
</g>
</svg>
