<svg width="24" height="24" viewBox="0 0 24 24" fill="none" xmlns="http://www.w3.org/2000/svg">
<path d="M11.999 22C7.05568 21.9348 3.06416 17.9433 2.999 13C3.06416 8.05666 7.05568 4.06514 11.999 3.99999C16.9423 4.06514 20.9338 8.05666 20.999 13C20.9338 17.9433 16.9423 21.9348 11.999 22ZM11.999 5.99999C8.15417 6.0506 5.04962 9.15515 4.999 13C5.04962 16.8448 8.15417 19.9494 11.999 20C15.8438 19.9494 18.9484 16.8448 18.999 13C18.9484 9.15515 15.8438 6.0506 11.999 5.99999ZM16.999 14H10.999V7.99999H12.999V12H16.999V14ZM20.291 6.70799L17.282 3.70799L18.691 2.29099L21.701 5.29099L20.291 6.70699V6.70799ZM3.706 6.70799L2.291 5.29099L5.282 2.29099L6.697 3.70799L3.708 6.70799H3.706Z" fill="#FF7A00"/>
</svg>
